
<svg width="510" height="419" viewBox="0 0 510 419" fill="none" xmlns="http://www.w3.org/2000/svg">
<g clip-path="url(#clip0_5_25)">
<path d="M271.18 97.4816H94.7603C90.5081 97.4768 86.4315 95.788 83.4248 92.7857C80.4181 89.7833 78.7269 85.7127 78.7221 81.4667V16.0148C78.7269 11.7689 80.4182 7.69829 83.4249 4.69597C86.4316 1.69365 90.5082 0.00482841 94.7603 0H271.18C275.432 0.00482657 279.509 1.69365 282.515 4.69597C285.522 7.69829 287.213 11.7689 287.218 16.0148V81.4667C287.213 85.7127 285.522 89.7833 282.516 92.7857C279.509 95.788 275.432 97.4768 271.18 97.4816Z" fill="white"/>
<path d="M271.18 97.4816H94.7603C90.5081 97.4768 86.4315 95.788 83.4248 92.7857C80.4181 89.7833 78.7269 85.7127 78.7221 81.4667V16.0148C78.7269 11.7689 80.4182 7.69829 83.4249 4.69597C86.4316 1.69365 90.5082 0.00482841 94.7603 0H271.18C275.432 0.00482657 279.509 1.69365 282.515 4.69597C285.522 7.69829 287.213 11.7689 287.218 16.0148V81.4667C287.213 85.7127 285.522 89.7833 282.516 92.7857C279.509 95.788 275.432 97.4768 271.18 97.4816ZM94.7603 1.39259C90.8779 1.39694 87.1558 2.93889 84.4105 5.68015C81.6653 8.42141 80.1211 12.1381 80.1167 16.0148V81.4667C80.1211 85.3435 81.6653 89.0601 84.4106 91.8014C87.1558 94.5426 90.8779 96.0846 94.7603 96.089H271.18C275.062 96.0846 278.785 94.5426 281.53 91.8014C284.275 89.0601 285.819 85.3435 285.824 81.4667V16.0148C285.819 12.1381 284.275 8.42141 281.53 5.68015C278.785 2.93889 275.062 1.39694 271.18 1.39259H94.7603Z" fill="#3F3D56"/>
<path d="M337.936 106.389H244.099C243.507 106.382 242.917 106.308 242.342 106.167C240.625 105.755 239.098 104.777 238.007 103.391C236.916 102.004 236.326 100.291 236.331 98.528V66.6792C236.334 64.5959 237.165 62.599 238.641 61.1266C240.117 59.6542 242.117 58.8265 244.204 58.8251H337.936C339.2 58.8218 340.445 59.1261 341.564 59.7118C342.01 59.9425 342.431 60.2171 342.822 60.5315C343.756 61.2614 344.511 62.1947 345.028 63.2601C345.546 64.3256 345.813 65.495 345.809 66.6792V98.528C345.807 100.612 344.976 102.61 343.5 104.084C342.025 105.558 340.023 106.387 337.936 106.389Z" fill="white"/>
<path d="M331.646 105.693C335.907 95.3529 340.395 85.115 345.112 74.9792V92.1639C341.896 97.0492 338.175 101.584 334.01 105.693H331.646Z" fill="#E6E6E6"/>
<path d="M342.385 61.0742C333.955 76.1768 325.134 91.0498 315.922 105.693H314.318C323.683 90.82 332.658 75.6987 341.242 60.3291C341.647 60.5388 342.03 60.7884 342.385 61.0742Z" fill="#E6E6E6"/>
<path d="M280.52 77.5625C275.01 87.2889 268.931 96.682 262.313 105.693H252.753C259.015 98.0754 265.281 90.4579 271.552 82.8404C273.351 80.6471 275.304 78.3493 278.002 77.458L280.52 77.5625Z" fill="#E6E6E6"/>
<path d="M267.815 76.0028C266.817 77.0403 265.862 78.1195 264.963 79.2406C262.982 81.6219 261.03 84.0241 259.07 86.4194C257.85 87.9095 256.63 89.3995 255.423 90.8896C255.04 90.6439 254.677 90.3692 254.336 90.068C252.409 88.398 251.214 86.0409 251.007 83.5017C250.799 80.9626 251.596 78.4433 253.227 76.4838C254.857 74.5243 257.191 73.2804 259.729 73.0187C262.267 72.757 264.806 73.4982 266.804 75.0837C267.163 75.364 267.501 75.6712 267.815 76.0028V76.0028Z" fill="#078DF9"/>
<path d="M321.738 82.7708L303.412 76.0794L294.312 72.758C291.349 71.6788 288.392 70.4463 285.331 69.6665C282.669 68.9068 279.842 68.9431 277.2 69.7709C274.845 70.6414 272.689 71.9771 270.862 73.698C270.053 74.4431 269.27 75.2113 268.512 76.0028C267.515 77.0403 266.559 78.1195 265.66 79.2406C263.68 81.6219 261.727 84.0241 259.768 86.4194C258.547 87.9095 257.327 89.3995 256.121 90.8896C252.09 95.8124 248.083 100.747 244.099 105.693C243.563 105.687 243.03 105.619 242.509 105.491C246.665 100.338 250.84 95.1974 255.033 90.068C255.514 89.4692 256.009 88.8634 256.497 88.2646C258.54 85.7649 260.586 83.2675 262.634 80.7724C264.216 78.8437 265.785 76.901 267.501 75.0837C267.654 74.9166 267.808 74.7564 267.968 74.5893C271.448 70.9964 275.792 67.8213 280.994 67.7377C284.055 67.689 287.012 68.6568 289.857 69.6804C292.918 70.7875 295.972 71.9155 299.033 73.0365L317.484 79.7767L322.1 81.4618C322.916 81.7542 322.567 83.0772 321.738 82.7708Z" fill="#E6E6E6"/>
<path d="M337.936 106.389H244.099C243.507 106.382 242.917 106.308 242.342 106.167C240.625 105.755 239.098 104.777 238.007 103.391C236.916 102.004 236.326 100.291 236.331 98.528V66.6792C236.334 64.5959 237.165 62.599 238.641 61.1266C240.117 59.6542 242.117 58.8265 244.204 58.8251H337.936C339.2 58.8218 340.445 59.1261 341.564 59.7118C342.01 59.9425 342.431 60.2171 342.822 60.5315C343.756 61.2614 344.511 62.1947 345.028 63.2601C345.546 64.3256 345.813 65.495 345.809 66.6792V98.528C345.807 100.612 344.976 102.61 343.5 104.084C342.025 105.558 340.023 106.387 337.936 106.389ZM244.204 60.2177C242.487 60.2187 240.841 60.8996 239.627 62.1109C238.412 63.3223 237.729 64.9651 237.726 66.6792V98.528C237.721 99.9789 238.207 101.389 239.105 102.53C240.003 103.67 241.26 104.475 242.673 104.814C243.143 104.929 243.624 104.99 244.108 104.997H337.936C339.654 104.995 341.3 104.312 342.515 103.1C343.729 101.887 344.412 100.243 344.414 98.528V66.6792C344.417 65.7047 344.197 64.7425 343.771 63.8659C343.344 62.9894 342.723 62.2217 341.954 61.6215C341.633 61.363 341.287 61.1373 340.922 60.9477C340.001 60.4655 338.976 60.215 337.936 60.2177H244.204Z" fill="#3F3D56"/>
<path d="M151.317 136.814H16.0382C11.786 136.809 7.70945 135.121 4.70275 132.118C1.69604 129.116 0.00478032 125.045 3.8147e-06 120.799V97.1252C0.00483741 92.8793 1.69612 88.8087 4.70281 85.8063C7.70951 82.804 11.7861 81.1152 16.0382 81.1104H151.317C155.569 81.1152 159.645 82.804 162.652 85.8063C165.659 88.8087 167.35 92.8793 167.355 97.1252V120.799C167.35 125.045 165.659 129.116 162.652 132.118C159.645 135.121 155.569 136.809 151.317 136.814V136.814Z" fill="white"/>
<path d="M151.317 136.814H16.0382C11.786 136.809 7.70945 135.121 4.70275 132.118C1.69604 129.116 0.00478032 125.045 3.8147e-06 120.799V97.1252C0.00483741 92.8793 1.69612 88.8087 4.70281 85.8063C7.70951 82.804 11.7861 81.1152 16.0382 81.1104H151.317C155.569 81.1152 159.645 82.804 162.652 85.8063C165.659 88.8087 167.35 92.8793 167.355 97.1252V120.799C167.35 125.045 165.659 129.116 162.652 132.118C159.645 135.121 155.569 136.809 151.317 136.814V136.814ZM16.0382 82.503C12.1558 82.5073 8.43368 84.0493 5.68843 86.7905C2.94318 89.5318 1.39898 93.2485 1.39463 97.1252V120.799C1.39904 124.676 2.94325 128.393 5.68849 131.134C8.43373 133.875 12.1558 135.417 16.0382 135.422H151.317C155.199 135.417 158.921 133.875 161.666 131.134C164.412 128.393 165.956 124.676 165.96 120.799V97.1252C165.956 93.2485 164.412 89.5318 161.666 86.7905C158.921 84.0493 155.199 82.5073 151.317 82.503H16.0382Z" fill="#3F3D56"/>
<path d="M55.7591 123.498H34.0112C32.8487 123.497 31.7341 123.035 30.9121 122.214C30.0901 121.394 29.6278 120.281 29.6265 119.12V98.8046C29.6278 97.6438 30.0901 96.5309 30.9121 95.7101C31.7341 94.8893 32.8487 94.4276 34.0112 94.4263H55.7591C56.9216 94.4276 58.0361 94.8893 58.8581 95.7101C59.6801 96.5309 60.1425 97.6438 60.1438 98.8046V119.12C60.1425 120.281 59.6801 121.394 58.8581 122.214C58.0361 123.035 56.9216 123.497 55.7591 123.498Z" fill="#078DF9"/>
<path d="M94.5514 123.498H72.8034C71.6409 123.497 70.5264 123.035 69.7044 122.214C68.8824 121.394 68.42 120.281 68.4187 119.12V98.8046C68.42 97.6438 68.8824 96.5309 69.7044 95.7101C70.5264 94.8893 71.6409 94.4276 72.8034 94.4263H94.5514C95.7139 94.4276 96.8284 94.8893 97.6504 95.7101C98.4724 96.5309 98.9348 97.6438 98.9361 98.8046V119.12C98.9348 120.281 98.4724 121.394 97.6504 122.214C96.8284 123.035 95.7139 123.497 94.5514 123.498V123.498Z" fill="#E6E6E6"/>
<path d="M133.344 123.498H111.596C110.433 123.497 109.319 123.035 108.497 122.214C107.675 121.394 107.212 120.281 107.211 119.12V98.8046C107.212 97.6438 107.675 96.5309 108.497 95.7101C109.319 94.8893 110.433 94.4276 111.596 94.4263H133.344C134.506 94.4276 135.621 94.8893 136.443 95.7101C137.265 96.5309 137.727 97.6438 137.728 98.8046V119.12C137.727 120.281 137.265 121.394 136.443 122.214C135.621 123.035 134.506 123.497 133.344 123.498V123.498Z" fill="#E6E6E6"/>
<path d="M191.571 38.6363H163.679C162.939 38.6363 162.23 38.3428 161.707 37.8205C161.183 37.2982 160.89 36.5898 160.89 35.8511C160.89 35.1124 161.183 34.404 161.707 33.8816C162.23 33.3593 162.939 33.0659 163.679 33.0659H191.571C192.311 33.0659 193.02 33.3593 193.544 33.8816C194.067 34.404 194.361 35.1124 194.361 35.8511C194.361 36.5898 194.067 37.2982 193.544 37.8205C193.02 38.3428 192.311 38.6363 191.571 38.6363Z" fill="#CCCCCC"/>
<path d="M251.54 53.9548H162.981C162.242 53.9548 161.532 53.6614 161.009 53.139C160.486 52.6167 160.192 51.9083 160.192 51.1696C160.192 50.4309 160.486 49.7225 161.009 49.2002C161.532 48.6779 162.242 48.3844 162.981 48.3844H251.54C252.28 48.3844 252.989 48.6779 253.512 49.2002C254.035 49.7225 254.329 50.4309 254.329 51.1696C254.329 51.9083 254.035 52.6167 253.512 53.139C252.989 53.6614 252.28 53.9548 251.54 53.9548Z" fill="#CCCCCC"/>
<path d="M130.554 62.1843C140.882 62.1843 149.255 53.8237 149.255 43.5103C149.255 33.197 140.882 24.8364 130.554 24.8364C120.225 24.8364 111.853 33.197 111.853 43.5103C111.853 53.8237 120.225 62.1843 130.554 62.1843Z" fill="#078DF9"/>
<path d="M334.012 218.281H157.592C153.34 218.276 149.264 216.587 146.257 213.585C143.25 210.583 141.559 206.512 141.554 202.266V136.814C141.559 132.568 143.25 128.498 146.257 125.495C149.264 122.493 153.34 120.804 157.592 120.799H334.012C338.264 120.804 342.341 122.493 345.348 125.495C348.354 128.498 350.046 132.568 350.05 136.814V202.266C350.046 206.512 348.354 210.583 345.348 213.585C342.341 216.587 338.264 218.276 334.012 218.281V218.281Z" fill="white"/>
<path d="M334.012 218.281H157.592C153.34 218.276 149.264 216.587 146.257 213.585C143.25 210.583 141.559 206.512 141.554 202.266V136.814C141.559 132.568 143.25 128.498 146.257 125.495C149.264 122.493 153.34 120.804 157.592 120.799H334.012C338.264 120.804 342.341 122.493 345.348 125.495C348.354 128.498 350.046 132.568 350.05 136.814V202.266C350.046 206.512 348.354 210.583 345.348 213.585C342.341 216.587 338.264 218.276 334.012 218.281V218.281ZM157.592 122.192C153.71 122.196 149.988 123.738 147.243 126.479C144.497 129.221 142.953 132.937 142.949 136.814V202.266C142.953 206.143 144.497 209.859 147.243 212.601C149.988 215.342 153.71 216.884 157.592 216.888H334.012C337.895 216.884 341.617 215.342 344.362 212.601C347.107 209.859 348.651 206.143 348.656 202.266V136.814C348.651 132.937 347.107 129.221 344.362 126.479C341.617 123.738 337.895 122.196 334.012 122.192H157.592Z" fill="#3F3D56"/>
<path d="M226.305 146.732H196.671C196.299 146.732 195.931 146.66 195.587 146.518C195.243 146.376 194.931 146.168 194.667 145.906C194.404 145.643 194.195 145.332 194.053 144.989C193.91 144.645 193.837 144.278 193.837 143.906C193.837 143.535 193.91 143.167 194.053 142.824C194.195 142.481 194.404 142.169 194.667 141.906C194.931 141.644 195.243 141.436 195.587 141.294C195.931 141.152 196.299 141.08 196.671 141.08H226.305C227.054 141.082 227.773 141.38 228.303 141.91C228.832 142.439 229.13 143.157 229.13 143.906C229.13 144.655 228.832 145.373 228.303 145.903C227.773 146.433 227.054 146.731 226.305 146.732V146.732Z" fill="#078DF9"/>
<path d="M292.733 158.289H196.671C195.921 158.289 195.201 157.992 194.67 157.462C194.139 156.932 193.841 156.213 193.841 155.464C193.841 154.714 194.139 153.995 194.67 153.465C195.201 152.936 195.921 152.638 196.671 152.638H292.733C293.483 152.638 294.203 152.936 294.734 153.465C295.265 153.995 295.563 154.714 295.563 155.464C295.563 156.213 295.265 156.932 294.734 157.462C294.203 157.992 293.483 158.289 292.733 158.289V158.289Z" fill="#E6E6E6"/>
<path d="M292.733 171.556H196.671C196.3 171.556 195.932 171.483 195.588 171.341C195.245 171.199 194.933 170.99 194.67 170.728C194.407 170.466 194.199 170.154 194.057 169.811C193.914 169.468 193.841 169.101 193.841 168.73C193.841 168.359 193.914 167.991 194.057 167.649C194.199 167.306 194.407 166.994 194.67 166.732C194.933 166.469 195.245 166.261 195.588 166.119C195.932 165.977 196.3 165.904 196.671 165.904H292.733C293.483 165.904 294.203 166.202 294.734 166.732C295.265 167.262 295.563 167.98 295.563 168.73C295.563 169.479 295.265 170.198 294.734 170.728C294.203 171.258 293.483 171.556 292.733 171.556Z" fill="#E6E6E6"/>
<path d="M292.733 184.822H196.671C196.299 184.823 195.931 184.75 195.587 184.608C195.243 184.466 194.931 184.258 194.667 183.996C194.404 183.733 194.195 183.422 194.053 183.079C193.91 182.735 193.837 182.368 193.837 181.996C193.837 181.625 193.91 181.257 194.053 180.914C194.195 180.571 194.404 180.259 194.667 179.997C194.931 179.734 195.243 179.526 195.587 179.384C195.931 179.243 196.299 179.17 196.671 179.17H292.733C293.483 179.172 294.201 179.47 294.731 180C295.261 180.529 295.558 181.248 295.558 181.996C295.558 182.745 295.261 183.463 294.731 183.993C294.201 184.523 293.483 184.821 292.733 184.822V184.822Z" fill="#E6E6E6"/>
<path d="M292.733 198.088H196.671C195.921 198.088 195.201 197.791 194.67 197.261C194.139 196.731 193.841 196.012 193.841 195.263C193.841 194.513 194.139 193.794 194.67 193.264C195.201 192.734 195.921 192.437 196.671 192.437H292.733C293.483 192.437 294.203 192.734 294.734 193.264C295.265 193.794 295.563 194.513 295.563 195.263C295.563 196.012 295.265 196.731 294.734 197.261C294.203 197.791 293.483 198.088 292.733 198.088V198.088Z" fill="#E6E6E6"/>
<path d="M417.346 407.277L407.663 407.276L403.056 369.98L417.348 369.98L417.346 407.277Z" fill="#FFB6B6"/>
<path d="M417.687 417.363L387.909 417.362V416.986C387.91 413.917 389.131 410.973 391.304 408.803C393.478 406.632 396.426 405.413 399.5 405.413H399.5L404.94 401.292L415.088 405.414L417.687 405.414L417.687 417.363Z" fill="#2F2E41"/>
<path d="M485.217 389.49L477.296 395.051L452.044 367.189L463.735 358.98L485.217 389.49Z" fill="#FFB6B6"/>
<path d="M491.307 397.546L466.948 414.648L466.732 414.34C464.964 411.829 464.267 408.72 464.795 405.696C465.323 402.672 467.032 399.982 469.546 398.216L469.546 398.216L471.622 391.721L482.298 389.263L484.424 387.77L491.307 397.546Z" fill="#2F2E41"/>
<path d="M455.927 221.73L456.731 223.446C462.02 234.728 463.372 247.34 461.317 259.627C461.164 260.106 461.193 260.625 461.399 261.085C462.673 262.578 460.674 269.064 459.527 272.685L458.494 279.089C458.494 279.089 460.207 285.037 457.605 284.6C455.003 284.163 458.878 290.507 456.396 292.096L449.957 332.009L476.821 376.22L466.871 390.626L427.073 339.461L426.575 293.262L420.606 330.519L420.108 389.136L402.007 387.215L395.376 330.385L401.701 251.791L411.651 217.714L455.927 221.73Z" fill="#2F2E41"/>
<path d="M343.826 208.085C344.764 207.039 346.075 206.399 347.478 206.303C348.882 206.207 350.267 206.661 351.34 207.57C351.555 207.758 351.755 207.963 351.936 208.184L369.675 201.849L376.061 209.706L350.821 215.761C349.846 216.44 348.673 216.778 347.485 216.722C346.297 216.666 345.161 216.218 344.254 215.449C343.743 215.007 343.323 214.468 343.02 213.864C342.717 213.26 342.536 212.602 342.487 211.928C342.439 211.254 342.524 210.577 342.737 209.936C342.951 209.294 343.289 208.701 343.732 208.19C343.763 208.155 343.794 208.12 343.826 208.085Z" fill="#FFB6B6"/>
<path d="M443.49 119.407L428.847 120.103L421.844 132.183L411.895 135.163L403.437 156.027L408.625 221.066C408.625 221.066 409.664 225 407.75 224.426C405.835 223.851 406.616 228.781 406.616 228.781L399.56 255.881L463.712 250.311L460.15 221.599C460.15 221.599 465.103 221.758 461.62 218.281C458.138 214.804 456.444 215.911 459.79 211.8C463.135 207.689 463.632 204.709 463.632 204.709L465.125 184.342L467.585 155.679C467.976 151.13 467.228 146.557 465.409 142.369C463.59 138.181 460.757 134.51 457.165 131.686V131.686L443.49 119.407Z" fill="#078DF9"/>
<path d="M478.051 261.383C478.838 260.219 479.138 258.794 478.888 257.411C478.638 256.029 477.858 254.798 476.714 253.982C476.479 253.819 476.23 253.677 475.971 253.555L477.785 234.831L468.593 230.569L468.887 256.488C468.465 257.598 468.424 258.817 468.769 259.953C469.115 261.09 469.827 262.08 470.795 262.77C471.35 263.157 471.975 263.431 472.636 263.577C473.297 263.723 473.98 263.737 474.647 263.619C475.313 263.501 475.95 263.254 476.52 262.89C477.091 262.526 477.584 262.054 477.972 261.5C477.999 261.462 478.025 261.423 478.051 261.383Z" fill="#FFB6B6"/>
<path d="M464.181 139.807C464.181 139.807 485.269 189.967 484.632 209.229L477.659 244.74L467.896 244.044L468.593 212.014C472.156 208.378 457.248 187.839 452.333 173.385L464.181 139.807Z" fill="#078DF9"/>
<path d="M412.89 134.666C412.89 134.666 386.711 182.265 376.574 196.264L368.878 202.266V212.014L386.772 212.409C386.772 212.409 413.387 190.303 412.392 179.374C411.397 168.446 412.89 134.666 412.89 134.666Z" fill="#078DF9"/>
<path d="M435.897 116.053C446.153 116.053 454.467 107.75 454.467 97.509C454.467 87.2676 446.153 78.9654 435.897 78.9654C425.64 78.9654 417.326 87.2676 417.326 97.509C417.326 107.75 425.64 116.053 435.897 116.053Z" fill="#FFB6B6"/>
<path d="M443.072 114.533C437.743 114.358 437.259 112.952 431.93 112.778C430.233 112.722 428.231 112.49 427.41 111.006C426.826 109.949 427.095 108.618 427.609 107.525C428.217 106.482 428.765 105.405 429.251 104.3C429.543 103.433 429.62 102.509 429.474 101.606C429.329 100.703 428.965 99.8488 428.415 99.1177C427.865 98.3866 427.144 97.8003 426.316 97.4094C425.488 97.0186 424.577 96.835 423.662 96.8745C422.041 96.9444 420.518 97.7059 418.9 97.8451C416.682 98.036 411.778 90.7236 412.799 88.7483C413.793 86.8256 415.793 85.375 416.108 83.2341C416.313 81.8338 415.735 80.4425 415.656 79.0295C415.538 76.9344 420.857 81.6585 419.883 79.7991C417.493 75.238 440.009 69.5834 443.716 75.2966C445.102 77.4319 447.571 77.2862 449.771 78.5686C451.214 79.4091 454.856 82.3086 455.684 84.1159C456.445 85.96 456.804 87.9446 456.738 89.9379C456.772 99.2086 455.357 107.736 447.869 113.216" fill="#2F2E41"/>
<path d="M356.286 413.501C351.25 413.944 346.179 413.258 341.443 411.494C336.706 409.73 332.425 406.931 328.91 403.303C324.314 398.465 321.16 392.238 318.111 386.215C317.223 384.463 316.305 382.65 315.371 380.913C314.33 379.02 313.881 376.858 314.082 374.707C314.282 372.556 315.122 370.515 316.495 368.845C317.811 367.176 319.597 365.939 321.623 365.292C323.649 364.646 325.823 364.62 327.864 365.218L328.309 365.347L332.314 380.954C332.912 378.626 334.194 373.381 335.004 368.242L335.072 367.812L335.471 367.989C339.653 369.837 343.586 372.203 347.176 375.032C353.536 380.126 358.709 386.542 362.335 393.834C365.961 401.126 367.954 409.119 368.174 417.258L368.184 417.743L356.286 413.501Z" fill="#F2F2F2"/>
<path d="M509.17 418.786L314.794 419C314.574 419 314.363 418.913 314.207 418.757C314.051 418.602 313.964 418.391 313.964 418.171C313.964 417.951 314.051 417.74 314.207 417.585C314.363 417.429 314.574 417.342 314.794 417.342L509.17 417.128C509.279 417.128 509.387 417.149 509.488 417.19C509.589 417.232 509.681 417.293 509.758 417.37C509.836 417.447 509.897 417.538 509.939 417.639C509.981 417.74 510.002 417.848 510.002 417.957C510.002 418.066 509.981 418.174 509.939 418.275C509.897 418.375 509.836 418.467 509.758 418.544C509.681 418.621 509.589 418.682 509.488 418.724C509.387 418.765 509.279 418.786 509.17 418.786V418.786Z" fill="#CACACA"/>
</g>
<defs>
<clipPath id="clip0_5_25">
<rect width="510" height="419" fill="white"/>
</clipPath>
</defs>
</svg>
