<svg width="617" height="368" viewBox="0 0 617 368" fill="none" xmlns="http://www.w3.org/2000/svg">
    <g clip-path="url(#clip0_5_227)">
        <path d="M472.39 363.839C464.491 357.18 459.692 346.661 460.951 336.42C462.209 326.18 470.003 316.766 480.112 314.591C490.221 312.417 501.745 318.436 504.816 328.288C506.506 309.294 508.453 289.504 518.576 273.329C527.741 258.683 543.616 248.203 560.822 246.328C578.027 244.454 596.141 251.535 606.872 265.082C617.602 278.629 620.229 298.324 612.714 313.878C607.178 325.336 596.978 333.863 586.292 340.8C551.76 363.027 510.343 372.066 469.662 366.254L472.39 363.839Z" fill="#F2F2F2"/>
        <path d="M589.858 251.927C575.661 263.463 562.638 276.364 550.975 290.445C532.723 312.407 517.954 337.029 507.181 363.455C506.392 365.383 509.53 366.222 510.31 364.316C527.936 321.368 556.075 283.514 592.152 254.216C593.772 252.9 591.464 250.622 589.858 251.927Z" fill="white"/>
        <path d="M198.622 362.029C209.472 352.883 216.062 338.435 214.334 324.37C212.606 310.305 201.901 297.375 188.016 294.388C174.131 291.401 158.302 299.669 154.085 313.201C151.764 287.112 149.089 259.931 135.186 237.715C122.597 217.598 100.792 203.204 77.1613 200.629C53.5301 198.054 28.6495 207.78 13.9116 226.387C-0.826281 244.994 -4.43479 272.046 5.88725 293.408C13.4911 309.145 27.5002 320.857 42.1782 330.385C89.006 360.784 147.096 373.461 202.369 365.346" fill="#F2F2F2"/>
        <path d="M37.2801 208.319C56.7788 224.163 74.6667 241.883 90.6852 261.224C106.706 280.544 120.811 301.369 132.802 323.407C139.504 335.768 145.524 348.486 150.837 361.503C151.92 364.151 147.61 365.303 146.539 362.685C137.129 339.737 125.488 317.763 111.782 297.08C98.1422 276.472 82.5309 257.233 65.1673 239.632C55.3464 229.682 44.9844 220.278 34.1285 211.463C31.9033 209.655 35.0733 206.526 37.2801 208.319L37.2801 208.319Z" fill="white"/>
        <path d="M442.893 367.194H184.036V102.234C184.036 45.862 230.008 -3.8147e-06 286.515 -3.8147e-06H340.414C396.921 -3.8147e-06 442.893 45.862 442.893 102.234V367.194Z" fill="#F2F2F2"/>
        <path d="M388.994 367.195H184.036V102.234C183.98 80.6337 190.836 59.5791 203.607 42.1359C204.078 41.4957 204.547 40.8639 205.032 40.2389C211.209 32.1565 218.56 25.0383 226.842 19.1195C227.31 18.7799 227.78 18.4462 228.257 18.1125C235.187 13.328 242.684 9.41669 250.576 6.46772C251.045 6.29049 251.522 6.11292 252 5.94261C259.138 3.40131 266.537 1.66053 274.061 0.752413C274.528 0.688843 275.007 0.6391 275.486 0.589355C282.818 -0.192769 290.213 -0.192769 297.546 0.589355C298.023 0.6391 298.502 0.688837 298.974 0.753093C306.496 1.66127 313.894 3.40183 321.03 5.94264C321.508 6.11296 321.985 6.29051 322.455 6.46808C330.25 9.37986 337.659 13.2328 344.515 17.9408C344.992 18.2673 345.469 18.601 345.938 18.9347C350.581 22.2407 354.941 25.9238 358.976 29.9463C362.211 33.1728 365.226 36.6121 368 40.2411C368.483 40.8639 368.952 41.4958 369.422 42.1349C382.194 59.5783 389.05 80.6333 388.994 102.234V367.195Z" fill="#CCCCCC"/>
        <path d="M372.328 248.688C378.594 248.688 383.675 243.619 383.675 237.368C383.675 231.116 378.594 226.047 372.328 226.047C366.061 226.047 360.98 231.116 360.98 237.368C360.98 243.619 366.061 248.688 372.328 248.688Z" fill="#078DF9"/>
        <path d="M421.687 359.258H412.992L408.855 325.802L421.688 325.803L421.687 359.258Z" fill="#FFB8B8"/>
        <path d="M406.781 356.78H423.55V367.312H396.224C396.224 365.929 396.497 364.56 397.027 363.282C397.558 362.004 398.336 360.843 399.316 359.865C400.296 358.887 401.46 358.111 402.741 357.582C404.022 357.052 405.395 356.78 406.781 356.78Z" fill="#2F2E41"/>
        <path d="M464.948 359.258H456.253L452.116 325.802L464.949 325.803L464.948 359.258Z" fill="#FFB8B8"/>
        <path d="M450.042 356.78H466.811V367.312H439.485C439.485 365.929 439.758 364.56 440.288 363.282C440.819 362.004 441.597 360.843 442.577 359.865C443.557 358.887 444.721 358.111 446.002 357.582C447.283 357.052 448.656 356.78 450.042 356.78Z" fill="#2F2E41"/>
        <path d="M378.07 239.61C377.445 238.691 377.029 237.646 376.852 236.549C376.675 235.452 376.742 234.329 377.047 233.261C377.352 232.192 377.888 231.203 378.617 230.363C379.347 229.524 380.252 228.854 381.269 228.401L410.825 147.132L425.369 155.05L391.622 232.714C392.271 234.469 392.253 236.4 391.57 238.143C390.887 239.885 389.587 241.317 387.917 242.167C386.246 243.017 384.321 243.226 382.507 242.755C380.692 242.284 379.113 241.165 378.07 239.61Z" fill="#FFB8B8"/>
        <path d="M460.506 254.881C459.54 254.328 458.707 253.571 458.066 252.662C457.425 251.754 456.991 250.716 456.796 249.622C456.6 248.528 456.647 247.405 456.934 246.331C457.22 245.257 457.74 244.259 458.455 243.407L449.298 157.439L465.849 158.193L469.655 242.755C471.01 244.048 471.842 245.792 471.994 247.657C472.146 249.521 471.607 251.377 470.479 252.871C469.352 254.366 467.714 255.396 465.876 255.767C464.038 256.137 462.127 255.822 460.506 254.881Z" fill="#FFB8B8"/>
        <path d="M434.103 132.079C443.723 132.079 451.521 124.299 451.521 114.702C451.521 105.105 443.723 97.3253 434.103 97.3253C424.483 97.3253 416.684 105.105 416.684 114.702C416.684 124.299 424.483 132.079 434.103 132.079Z" fill="#FFB8B8"/>
        <path d="M460.395 235.329H407.881L407.945 234.921C408.039 234.312 417.304 173.765 410.471 153.957C409.785 152.011 409.845 149.88 410.64 147.975C411.435 146.07 412.907 144.526 414.775 143.64H414.775C424.542 139.051 443.29 133.401 459.114 147.113C461.443 149.164 463.261 151.727 464.425 154.6C465.59 157.473 466.068 160.576 465.823 163.666L460.395 235.329Z" fill="#078DF9"/>
        <path d="M417.967 182.713L394.325 177.928L405.407 151.729C406.07 149.192 407.715 147.021 409.981 145.691C412.247 144.362 414.949 143.984 417.494 144.639C420.039 145.295 422.22 146.931 423.558 149.188C424.896 151.445 425.281 154.14 424.631 156.68L417.967 182.713Z" fill="#078DF9"/>
        <path d="M448.247 191.598L446.826 159.094C445.748 152.984 449.254 147.208 454.646 146.264C460.04 145.323 465.307 149.561 466.39 155.716L471.732 186.087L448.247 191.598Z" fill="#078DF9"/>
        <path d="M458.648 231.438C467.098 263.542 468.02 304.36 465.74 348.883L454.393 347.468L433.826 262.568L422.479 348.883L409.714 348.176C405.9 301.46 402.187 261.354 408.295 234.975L458.648 231.438Z" fill="#2F2E41"/>
        <path d="M445.58 128.132C442.33 131.585 436.296 129.731 435.872 125.014C435.839 124.647 435.841 124.279 435.879 123.913C436.098 121.823 437.308 119.926 437.018 117.72C436.953 117.171 436.747 116.647 436.422 116.199C433.833 112.74 427.754 117.747 425.311 114.615C423.812 112.695 425.574 109.672 424.424 107.526C422.906 104.693 418.41 106.09 415.591 104.539C412.455 102.813 412.642 98.0122 414.707 95.092C417.225 91.5308 421.64 89.6304 426 89.3566C430.36 89.0827 434.69 90.2585 438.76 91.8409C443.385 93.6389 447.971 96.1238 450.817 100.181C454.278 105.114 454.611 111.747 452.88 117.516C451.827 121.025 448.233 125.312 445.58 128.132Z" fill="#2F2E41"/>
        <path d="M595.711 367.65H72.1164C71.8929 367.649 71.6787 367.56 71.5209 367.402C71.3631 367.244 71.2744 367.03 71.2744 366.807C71.2744 366.584 71.3631 366.37 71.5209 366.213C71.6787 366.055 71.8929 365.966 72.1164 365.965H595.711C595.935 365.966 596.149 366.055 596.307 366.213C596.464 366.37 596.553 366.584 596.553 366.807C596.553 367.03 596.464 367.244 596.307 367.402C596.149 367.56 595.935 367.649 595.711 367.65Z" fill="#3F3D56"/>
        <path d="M332.613 290.43H240.417C239.203 290.437 238.036 289.963 237.172 289.112C236.307 288.261 235.817 287.103 235.807 285.892V80.5955C235.817 79.3842 236.307 78.2261 237.172 77.3752C238.036 76.5243 239.203 76.0501 240.417 76.0566H332.613C333.827 76.0501 334.994 76.5243 335.858 77.3752C336.723 78.2261 337.213 79.3842 337.222 80.5955V285.892C337.213 287.103 336.723 288.261 335.858 289.112C334.994 289.963 333.827 290.437 332.613 290.43Z" fill="white"/>
        <path d="M337.222 142.484H235.807V143.899H337.222V142.484Z" fill="#CCCCCC"/>
        <path d="M337.577 223.217H236.162V224.632H337.577V223.217Z" fill="#CCCCCC"/>
        <path d="M269.14 76.0567H267.721V291.138H269.14V76.0567Z" fill="#CCCCCC"/>
        <path d="M304.599 76.0567H303.181V291.138H304.599V76.0567Z" fill="#CCCCCC"/>
    </g>
    <defs>
        <clipPath id="clip0_5_227">
            <rect width="617" height="368" fill="white"/>
        </clipPath>
    </defs>
</svg>
