<svg xmlns="http://www.w3.org/2000/svg" viewBox="0 0 1440 320">
    <path fill="#0099ff" fill-opacity="1" d="M0,224L34.3,197.3C68.6,171,137,117,206,112C274.3,107,343,149,411,170.7C480,192,549,192,617,170.7C685.7,149,754,107,823,101.3C891.4,96,960,128,1029,149.3C1097.1,171,1166,181,1234,160C1302.9,139,1371,85,1406,58.7L1440,32L1440,0L1405.7,0C1371.4,0,1303,0,1234,0C1165.7,0,1097,0,1029,0C960,0,891,0,823,0C754.3,0,686,0,617,0C548.6,0,480,0,411,0C342.9,0,274,0,206,0C137.1,0,69,0,34,0L0,0Z"></path>
</svg>